# xmcd CD database file
#
# Track frame offsets:
#	150
#	17850
#	22732
#	42142
#	59285
#	62452
#	100550
#	106260
#	138305
#	148932
#	189840
#	204170
#	219082
#	225222
#	241445
#	277572
#	282570
#	301760
#
# Disc length: 4439 seconds
#
# Revision: 0
# Processed by: cddbd v1.4PL0 Copyright (c) Steve Scherf et al.
# Submitted via: CDex 1.40Beta9
#
DISCID=de115512
DTITLE=CHE and RAY - THE ORIGINAL 1998
DYEAR=1998
DGENRE=Blues
TTITLE0=We`re Rollin` Down Our Pianos: Thirty Wears
TTITLE1=HEY YOU - Hey Hey You! (Introduction)
TTITLE2=Moderation: "Hey You!"
TTITLE3=HEY YOU - Hey Hey You! (Song)
TTITLE4=Moderation: "Natel"
TTITLE5=Handy Blues: We Walk And We Talk...
TTITLE6=Moderation: "The San Francisco Drama"
TTITLE7=Rollin` Down To Frisco
TTITLE8=Moderation: "The Band: Blues Connection"
TTITLE9=Playin` A Wild Card - And The Blues...**
TTITLE10=Roll`em In Your Town (The Boogie-Man`s Blues)
TTITLE11=Old Guitar Boogie
TTITLE12=Moderation: "Special Names..."
TTITLE13=The Old Mississippi, My Babe and Me
TTITLE14=Boogie At The Albisgüetli
TTITLE15=Moderation: "Crew"
TTITLE16=How Long Blues***
TTITLE17=Rollin` Down On Boogie-Lane
EXTD=YEAR: 1998 ID3G: 0
EXTT0=
EXTT1=
EXTT2=
EXTT3=
EXTT4=
EXTT5=
EXTT6=
EXTT7=
EXTT8=
EXTT9=
EXTT10=
EXTT11=
EXTT12=
EXTT13=
EXTT14=
EXTT15=
EXTT16=
EXTT17=
PLAYORDER=
